<svg width="51" height="6" viewBox="0 0 51 6" fill="none" xmlns="http://www.w3.org/2000/svg">
<path d="M1 5C0.447715 5 0 4.55228 0 4L0 2C0 1.44772 0.447715 1 1 1L12.5 1L24.889 0.00887728C24.9628 0.00297737 25.037 0.00528002 25.1102 0.0157433L31.8586 0.979797C31.9524 0.993197 32.0476 0.993197 32.1414 0.979797L38.8881 0.0159802C38.9625 0.0053606 39.0378 0.0031476 39.1126 0.00938368L50.083 0.923587C50.6013 0.966778 51 1.40004 51 1.92013V3.86722C51 4.46872 50.4728 4.9341 49.876 4.8595L43.0895 4.01118C43.0299 4.00374 42.9699 4.00167 42.91 4.005L25 5L15.1021 5.98979C15.0342 5.99658 14.9658 5.9964 14.8979 5.98926L5.5 5H1Z" fill="#6FDC52"/>
</svg>
